<?xml version="1.0" encoding="utf-8"?>
<!-- Generator: Adobe Illustrator 16.0.0, SVG Export Plug-In . SVG Version: 6.00 Build 0)  -->
<!DOCTYPE svg PUBLIC "-//W3C//DTD SVG 1.1//EN" "http://www.w3.org/Graphics/SVG/1.1/DTD/svg11.dtd">
<svg version="1.1" id="Layer_1" xmlns="http://www.w3.org/2000/svg" xmlns:xlink="http://www.w3.org/1999/xlink" x="0px" y="0px"
	 width="203px" height="63px" viewBox="0 0 203 63" enable-background="new 0 0 203 63" xml:space="preserve">
<g>
	<g>
		<g>
			<path fill="#F48120" d="M30.377,13.556c-3.927,0-7.302,1.366-10.137,4.097c-2.829,2.733-4.248,5.993-4.248,9.786
				c0,3.625,1.435,6.787,4.304,9.501c2.869,2.717,6.219,4.075,10.081,4.075c3.753,0,7.035-1.39,9.849-4.172
				c2.816-2.792,4.22-6.024,4.22-9.711c0-3.655-1.389-6.835-4.171-9.54C37.497,14.903,34.2,13.556,30.377,13.556z"/>
			<path fill="#F48120" d="M58.795,37.975V16.643c0-8.845-6.912-16.017-15.429-16.017H16.94C8.413,0.626,1.5,7.798,1.5,16.643
				v21.332c0,8.84,6.913,16.02,15.44,16.02h26.426l19.102,5.497L58.795,37.975z M46.398,43.075c-4.531,4.613-9.77,6.91-15.708,6.91
				c-6.352,0-11.878-2.28-16.55-6.833c-4.672-4.555-7.006-9.906-7.006-16.047c0-5.874,2.323-11.091,6.954-15.666
				c4.646-4.567,9.964-6.849,15.974-6.849c6.187,0,11.588,2.252,16.211,6.751c4.615,4.496,6.927,9.747,6.927,15.764
				C53.2,33.148,50.938,38.471,46.398,43.075z"/>
		</g>
		<g>
			<path fill="#DA2128" d="M64.222,38.102V23.913c0-2.748,0.403-5.062,1.214-6.936c0.809-1.87,1.919-3.37,3.338-4.501
				c1.337-1.055,2.913-1.833,4.712-2.327c1.796-0.493,3.652-0.743,5.56-0.743c0.139,0,0.314,0,0.531,0c0.207,0,0.385,0,0.529,0
				v7.524h-2.436c-2.053,0-3.568,0.492-4.557,1.478c-0.983,0.997-1.479,2.541-1.479,4.661v15.032H64.222z"/>
			<path fill="#DA2128" d="M195.94,36.444c-1.462,0.765-3.011,1.233-4.635,1.405c-1.624,0.175-3.065,0.254-4.322,0.254
				c-2.5,0-4.676-0.67-6.546-2.019c-1.875-1.354-2.806-3.601-2.806-6.707c0-2.917,0.845-4.999,2.544-6.247
				c1.7-1.247,7.264-2.545,7.749-2.648c0.486-0.112,6.324-1.784,6.302-3.172c-0.089-4.476-8.859-3.556-8.896-0.38h-6.97
				c0.268-2.154,1.241-3.85,2.912-5.242c1.872-1.59,4.539-2.39,8.007-2.39c3.883,0,6.796,0.661,8.736,1.975
				c2.013,1.393,3.013,3.335,3.013,5.823v9.472c0,2.767-0.504,4.932-1.509,6.495C198.512,34.626,197.322,35.752,195.94,36.444z
				 M194.267,23.653c-0.97,0.488-9.875,0.911-9.875,5.513c0,1.037,0.313,1.867,0.938,2.493c0.62,0.558,1.519,0.825,2.698,0.825
				c1.941,0,3.472-0.548,4.576-1.65c1.11-1.116,1.662-2.64,1.662-4.588V23.653z"/>
			<path fill="#DA2128" d="M100.024,36.444c-1.463,0.765-3,1.233-4.631,1.405c-1.632,0.175-3.063,0.254-4.318,0.254
				c-2.489,0-4.676-0.67-6.55-2.019c-1.871-1.354-2.807-3.601-2.807-6.707c0-2.917,0.854-4.999,2.547-6.247
				c1.701-1.247,7.26-2.545,7.747-2.648c0.489-0.112,6.33-1.784,6.302-3.172c-0.086-4.476-8.859-3.556-8.902-0.38h-6.968
				c0.282-2.154,1.252-3.85,2.91-5.242c1.876-1.59,4.546-2.39,8.014-2.39c3.882,0,6.793,0.661,8.735,1.975
				c2.013,1.393,3.021,3.335,3.021,5.823v9.472c0,2.767-0.51,4.932-1.508,6.495C102.604,34.626,101.411,35.752,100.024,36.444z
				 M98.359,23.653c-0.965,0.488-9.877,0.911-9.877,5.513c0,1.037,0.307,1.867,0.93,2.493c0.626,0.558,1.531,0.825,2.707,0.825
				c1.938,0,3.469-0.548,4.58-1.65c1.1-1.116,1.661-2.64,1.661-4.588V23.653z"/>
			<path fill="#DA2128" d="M118.787,38.094l-7.565,0.01c-2.714-0.202-4.08-2.123-4.08-5.367V1.144h3.816c0.912,0,3.492,0,3.492,0
				v8.218h4.337v4.008c0,1.06,0,3.586,0,3.586s-2.61,0.014-3.592,0.014h-0.745v5.329v8.431c0,1.2,0.702,1.796,2.119,1.796h2.218
				V38.094z"/>
			<path fill="#DA2128" d="M149.976,38.104v-14.19c0-2.748,0.408-5.062,1.221-6.936c0.813-1.87,1.924-3.37,3.34-4.501
				c1.338-1.055,2.912-1.833,4.715-2.327c1.797-0.493,3.648-0.743,5.56-0.743c0.138,0,0.319,0,0.528,0c0.206,0,0.389,0,0.521,0
				v7.524h-2.428c-2.046,0-3.569,0.492-4.559,1.478c-0.989,0.997-1.48,2.541-1.48,4.661v15.034H149.976z"/>
			<path fill="#DA2128" d="M167.787,1.144h7.412v3.609v2.223h-7.412V1.144z M167.787,9.406h3.815c0.983,0,3.597,0,3.597,0
				s0,2.615,0,3.603v25.095h-7.412V9.406z"/>
			<g>
				<path fill="#DA2128" d="M118.98,23.693c0-3.729,1.479-7.057,4.428-9.971c2.957-2.901,6.344-4.354,10.171-4.354
					c3.939,0,7.372,1.43,10.318,4.29c2.946,2.874,4.408,6.22,4.408,10.034c0,3.858-1.441,7.243-4.325,10.173
					c-2.889,2.931-6.226,4.395-10.005,4.395c-4.049,0-7.561-1.446-10.537-4.343C120.47,31.018,118.98,27.612,118.98,23.693z
					 M142.085,23.72c0-2.162-0.822-4.034-2.466-5.631c-1.643-1.59-3.59-2.387-5.848-2.387c-2.32,0-4.319,0.801-5.996,2.418
					c-1.668,1.618-2.505,3.548-2.505,5.785c0,2.142,0.849,4.009,2.544,5.619c1.688,1.605,3.677,2.404,5.957,2.404
					c2.217,0,4.156-0.822,5.817-2.467C141.251,27.816,142.085,25.898,142.085,23.72z"/>
			</g>
		</g>
		<g>
			<path fill="#F48120" d="M152.289,47.911h-3.825c0.102-2.227,0.804-3.978,2.09-5.253c1.297-1.276,2.951-1.921,4.976-1.921
				c1.257,0,2.363,0.275,3.312,0.801c0.966,0.535,1.717,1.289,2.294,2.29c0.575,1,0.868,1.993,0.868,3.022
				c0,1.225-0.351,2.542-1.037,3.953c-0.699,1.404-1.973,3.078-3.824,4.997l-2.312,2.423h7.337v3.623h-14.267v-1.868l6.381-6.489
				c1.538-1.557,2.554-2.822,3.065-3.758c0.512-0.954,0.757-1.807,0.757-2.576c0-0.789-0.258-1.451-0.781-1.963
				c-0.535-0.52-1.203-0.77-2.04-0.77c-0.831,0-1.534,0.31-2.104,0.929C152.63,45.981,152.329,46.822,152.289,47.911z"/>
			<path fill="#F48120" d="M170.153,40.737c1.509,0,2.798,0.383,3.89,1.11c1.087,0.751,1.928,1.869,2.522,3.381
				c0.597,1.526,0.879,3.63,0.879,6.337c0,2.74-0.292,4.864-0.896,6.385c-0.593,1.519-1.404,2.64-2.421,3.355
				c-1.014,0.707-2.297,1.068-3.857,1.068c-1.542,0-2.841-0.361-3.906-1.079c-1.049-0.722-1.867-1.812-2.473-3.271
				c-0.606-1.467-0.89-3.547-0.89-6.264c0-3.771,0.57-6.508,1.744-8.205C166.04,41.683,167.851,40.737,170.153,40.737z
				 M170.26,44.465c-0.664,0-1.251,0.224-1.769,0.639c-0.51,0.43-0.906,1.162-1.164,2.192c-0.27,1.037-0.406,2.559-0.406,4.561
				c0,2.59,0.315,4.393,0.92,5.39c0.633,0.994,1.422,1.485,2.419,1.485c0.94,0,1.695-0.47,2.257-1.412
				c0.684-1.136,1.021-3.041,1.021-5.716c0-2.701-0.306-4.563-0.927-5.598C172.009,44.99,171.224,44.465,170.26,44.465z"/>
			<path fill="#F48120" d="M180.103,41.271h5.855v20.576h-3.884V44.94h-4.237L180.103,41.271z"/>
			<path fill="#F48120" d="M187.936,41.175H201.5v2.066l-9.333,19.133l-3.325-1.612l7.767-15.889h-8.673V41.175z"/>
		</g>
	</g>
</g>
</svg>
